<svg id="Livello_1" data-name="Livello 1" xmlns="http://www.w3.org/2000/svg" width="2886.99" height="1040.125" viewBox="0 0 2886.99 1040.125">
  <defs>
    <style>
      .cls-1 {
        fill: #fc0;
      }

      .cls-2 {
        fill: #fff;
      }
    </style>
  </defs>
  <g>
    <g>
      <path class="cls-1" d="M1998.43,851.115l-328.821,238.9a5.006,5.006,0,0,0-1.82,5.592l125.6,386.554a5,5,0,0,1-7.692,5.592l-328.821-238.907a5,5,0,0,0-5.882,0l-328.821,238.907a5,5,0,0,1-7.693-5.592q1.284-3.939,2.561-7.882,3.354-10.308,6.7-20.627,4.689-14.442,9.388-28.884,5.305-16.333,10.609-32.661,5.192-15.972,10.378-31.945l8.688-26.739c4.161-12.809,8.7-25.508,13.9-38.012l6.788-16.34q4.809-11.562,9.618-23.138,2.048-4.921,4.1-9.858t4.1-9.863c.1-.24.2-.475.3-.715,1.14-2.681,2.4-4.962,5.636-5.227.18-.015.365-.03.546-.04,4.481-.31,9.077.09,13.554.125l3.731.03c1.145.01,2.291.015,3.441.025.665,0,1.331,0,2,0,.96.005,1.92.01,2.881.01s1.915.005,2.876.005h42.448c9.719,0,22.558-.37,35.622-3.241,14.75-3.241,27.339-9.253,37.422-17.856a77.686,77.686,0,0,0,8.9-8.952,83.967,83.967,0,0,0,19.191-46.866q.4-4.277.395-8.537c0-.43-.005-.866-.01-1.3-.005-.35-.015-.695-.02-1.035-.005-.2-.01-.41-.02-.615,0-.32-.02-.636-.035-.951-.01-.27-.025-.54-.04-.81-.01-.325-.03-.65-.05-.975-.02-.305-.04-.61-.065-.91-.02-.361-.05-.721-.08-1.081,0-.05-.01-.1-.015-.155-.035-.415-.07-.83-.115-1.24q-.06-.645-.135-1.291c-.155-1.38-.345-2.76-.56-4.131-.055-.315-.105-.63-.16-.945-.045-.285-.1-.57-.15-.851-.05-.305-.11-.615-.17-.92-.075-.42-.16-.835-.246-1.25a3.176,3.176,0,0,1,1.326-3.256c.55-.38,1.115-.776,1.69-1.2.261-.19.526-.385.791-.58.325-.245.655-.5.985-.76.235-.185.47-.375.71-.57.34-.275.685-.561,1.026-.856.285-.24.565-.49.845-.745.3-.26.585-.53.875-.8a41.338,41.338,0,0,0,3.981-4.306c.13-.156.255-.316.38-.476.306-.39.606-.795.9-1.2.115-.16.23-.32.345-.485.325-.465.645-.946.955-1.436a40.516,40.516,0,0,0,6.1-21.827c0-.32-.005-.635-.01-.955-.005-.215-.01-.435-.02-.655-.01-.27-.02-.54-.035-.811,0-.2-.02-.4-.035-.605-.02-.32-.045-.635-.07-.955-.025-.3-.05-.59-.085-.885-.025-.27-.055-.545-.09-.816-.03-.24-.06-.485-.1-.725a.683.683,0,0,0-.01-.1,3.152,3.152,0,0,1,.79-2.541c.951-.99,1.861-2,2.716-3.031.19-.225.38-.455.56-.685q.2-.232.39-.48c.271-.335.536-.68.791-1.025.13-.17.26-.34.38-.515.155-.2.31-.416.455-.626a2.333,2.333,0,0,0,.18-.255c.23-.32.45-.645.67-.97a.5.5,0,0,0,.055-.085c.2-.29.39-.58.57-.875q.152-.225.286-.451c.13-.2.255-.4.37-.605.12-.185.23-.375.34-.565.085-.14.17-.28.245-.425.15-.25.29-.5.425-.755.185-.33.36-.661.53-.991.13-.24.25-.485.365-.725.09-.17.18-.345.26-.52.065-.13.125-.255.18-.385.13-.265.256-.535.376-.805q.51-1.127.95-2.276c.13-.34.26-.68.38-1.025.11-.306.215-.611.32-.916q.54-1.62.96-3.276c.1-.355.18-.715.26-1.07.041-.165.081-.33.116-.5.02-.1.04-.195.06-.29s.04-.19.06-.29c.075-.361.145-.726.21-1.086s.125-.725.185-1.09c.04-.255.08-.515.115-.77.015-.09.025-.176.035-.266a1.168,1.168,0,0,0,.02-.13c.045-.345.085-.69.125-1.04s.08-.735.11-1.11c.035-.345.06-.7.085-1.046l.015-.255c.02-.31.04-.625.05-.935.02-.355.03-.71.04-1.065v-.12c.005-.35.01-.7.01-1.051v-.225c0-.48-.01-.96-.025-1.445s-.035-.961-.07-1.446c-.01-.27-.03-.535-.05-.805-.015-.24-.035-.485-.06-.725-.015-.195-.035-.39-.055-.585-.03-.36-.07-.721-.115-1.086-.05-.445-.105-.895-.17-1.34-.025-.16-.045-.315-.075-.475-.04-.305-.09-.606-.145-.911-.1-.605-.21-1.215-.335-1.82-.036-.185-.07-.37-.11-.555-.026-.12-.051-.24-.08-.361-.1-.4-.181-.805-.276-1.2-.015-.075-.03-.15-.05-.225-.035-.155-.075-.3-.115-.455-.03-.115-.06-.23-.09-.34a1.353,1.353,0,0,1-.03-.49.814.814,0,0,1,.035-.15,1.008,1.008,0,0,1,.45-.541c.216-.1.431-.2.646-.305.07-.03.14-.06.21-.1.29-.135.58-.27.865-.41l.43-.21.435-.21.235-.12c1.181-.585,2.361-1.2,3.536-1.856,21.738-12.063,34.177-29.344,35.017-48.665a49.71,49.71,0,0,0-12.269-34.611c-4.046-4.527-8.058-9.218-11.909-13.955-7.688-9.438-15.015-19.361-21.792-29.489l-.455-.686c-6.172-9.233-12-17.955-15.055-26.788-2.246-6.517-1.165-9.248.025-11.294a184.288,184.288,0,0,0,16.23-36.662,180.421,180.421,0,0,0,8.273-50.821,217.3,217.3,0,0,0-5.007-50.411c-.34-1.571-.69-3.141-1.065-4.712q-.525-2.242-1.1-4.466c-.126-.5-.255-1-.386-1.5-.07-.265-.14-.535-.215-.8-.18-.675-.36-1.35-.545-2.026-.235-.855-.475-1.7-.72-2.561-.16-.56-.32-1.12-.485-1.68-.06-.2-.12-.41-.185-.615q-.675-2.289-1.406-4.577c-.195-.62-.395-1.24-.6-1.86s-.395-1.211-.6-1.821c-.19-.57-.38-1.135-.575-1.7q-.592-1.756-1.221-3.507-.87-2.445-1.79-4.886c-.27-.7-.535-1.411-.81-2.111q-1.7-4.359-3.547-8.693c-.16-.38-.325-.76-.49-1.14-.215-.5-.435-1-.655-1.5-.325-.745-.66-1.5-1-2.235q-1.006-2.236-2.056-4.462c-.345-.74-.7-1.48-1.055-2.215-.075-.16-.155-.32-.23-.48-.275-.571-.556-1.136-.836-1.706-.37-.745-.74-1.491-1.115-2.231s-.74-1.465-1.12-2.195c-.15-.3-.3-.586-.456-.876a29.429,29.429,0,0,1-2.335-4.411,5.138,5.138,0,0,1-.305-2.111,8.484,8.484,0,0,1,.535-2.041c.235-.645.445-1.3.655-1.945.14-.42.275-.845.41-1.266.155-.475.315-.955.47-1.435.175-.535.345-1.075.521-1.611.195-.59.385-1.18.575-1.77l.63-1.936.675-2.085c.245-.746.485-1.486.73-2.231.255-.79.51-1.586.77-2.376.271-.835.541-1.67.816-2.511.285-.88.57-1.755.855-2.636.3-.92.6-1.845.9-2.765.31-.961.626-1.921.936-2.881.325-1,.65-2,.97-2.991.335-1.036.675-2.066,1.01-3.1q.518-1.6,1.041-3.2c.355-1.1.71-2.2,1.065-3.3.37-1.126.735-2.256,1.1-3.382l1.126-3.466q.577-1.77,1.15-3.541c.395-1.205.785-2.406,1.175-3.611.4-1.225.8-2.451,1.2-3.676l1.215-3.736q.615-1.9,1.231-3.792.622-1.92,1.245-3.836.63-1.943,1.26-3.881.639-1.957,1.271-3.911c.43-1.316.855-2.631,1.285-3.947s.861-2.645,1.286-3.966.865-2.661,1.3-3.986.87-2.666,1.3-4,.87-2.666,1.3-4,.87-2.671,1.3-4.006.871-2.666,1.3-4,.865-2.656,1.3-3.987.86-2.645,1.291-3.971.855-2.631,1.285-3.946.845-2.611,1.27-3.921c.421-1.291.846-2.586,1.266-3.882q.622-1.92,1.245-3.846.622-1.9,1.236-3.8c.4-1.245.81-2.5,1.215-3.741s.8-2.456,1.2-3.687c.391-1.2.781-2.415,1.176-3.621q.577-1.778,1.155-3.551c.375-1.16.75-2.316,1.125-3.476.371-1.13.736-2.261,1.106-3.4q.533-1.65,1.075-3.306c.345-1.07.695-2.141,1.041-3.211.34-1.035.675-2.076,1.015-3.111.325-1,.65-2.006.975-3.011.315-.965.625-1.931.94-2.9.3-.925.606-1.851.906-2.776.285-.885.575-1.77.86-2.656.275-.845.55-1.685.82-2.531.26-.8.52-1.6.781-2.39.245-.751.485-1.5.73-2.256.23-.7.455-1.4.685-2.106.21-.65.425-1.3.635-1.95.195-.6.39-1.2.585-1.8.176-.545.351-1.09.531-1.631.155-.49.315-.975.475-1.465.135-.425.275-.855.415-1.285.12-.366.24-.736.36-1.1.1-.305.195-.61.3-.92.08-.24.16-.48.235-.72.06-.175.115-.35.17-.525.035-.105.07-.211.105-.321.01-.035.025-.07.035-.105a5,5,0,0,1,9.513,0l125.6,386.555a4.991,4.991,0,0,0,4.751,3.456h406.446A5,5,0,0,1,1998.43,851.115Z" transform="translate(-448.608 -448.607)"/>
      <path class="cls-2" d="M1431.438,975.625c-.005.315-.01.63-.025.945-.6,13.66-12.339,23.8-23.463,29.97a120.949,120.949,0,0,1-14.26,6.377l-8.462,3.356c-.846.335-2.431.615-2.881,1.521-.52,1.055.58,2.275,1.08,3.106a58.936,58.936,0,0,1,6.762,14.99,31.237,31.237,0,0,1,.686,13.974c-.115.575-.251,1.15-.406,1.721-.105.38-.215.76-.34,1.13s-.255.745-.395,1.115a24.865,24.865,0,0,1-2.031,4.072c-.265.43-.54.855-.83,1.27a35.971,35.971,0,0,1-5.171,5.882c-1.631,1.51-3.341,2.941-5.092,4.311a31.994,31.994,0,0,0-3.291,2.256,1.248,1.248,0,0,0-.115.115c-.04.04-.075.08-.11.115s-.065.08-.1.12a1.651,1.651,0,0,0-.21.355,1.271,1.271,0,0,0-.07.235.821.821,0,0,0-.01.115,2.636,2.636,0,0,0,.26,1.111c.09.2.195.4.295.6,3.536,7,5.367,16.395.92,23.417-2.531,4-6.677,6.638-10.688,9.148-4.187,2.616-8.5,5.2-12.694,7.818a66.393,66.393,0,0,1,3.641,9.078q.3.938.57,1.876c.27.945.525,1.89.755,2.845.15.636.3,1.276.435,1.916s.26,1.28.38,1.926c.211,1.125.391,2.26.541,3.4.075.565.14,1.135.2,1.7s.115,1.141.165,1.711a68.228,68.228,0,0,1-2.341,24.523c-.075.26-.15.52-.23.775-.175.6-.365,1.195-.565,1.786a61.62,61.62,0,0,1-3.937,9.243c-.16.305-.325.605-.49.9-.5.9-1.02,1.8-1.565,2.676s-1.116,1.745-1.711,2.6q-1.485,2.131-3.176,4.132l-.285.33c-.27.315-.545.63-.82.935-.375.42-.755.831-1.146,1.241a54.633,54.633,0,0,1-4.071,3.851c-16.06,13.7-38.192,15.71-58.434,15.71h-42.448c-10.874,0-21.747-.15-32.611-.235q-3.18-.023-6.357-.04h-.67c-.25,0-.5,0-.75,0-.37.005-.736.015-1.106.035a15.46,15.46,0,0,0-2.641.335c-.19.045-.375.095-.56.15-.26.075-.52.16-.775.26-3.351,1.3-4.426,4.757-5.627,7.828-1.48,3.8-3.076,7.547-4.641,11.308q-4.1,9.865-8.2,19.732-8.2,19.738-16.4,39.467-2.094,5.034-4.187,10.074-4.1,9.873-8.207,19.746c-2.016,4.841-4.016,9.673-5.887,14.575-.235.62-.5,1.23-.76,1.84-.05.125-.105.255-.16.38a3.75,3.75,0,0,1-3.527,2.476,1.34,1.34,0,0,1-.2-.01,3.757,3.757,0,0,1-3.551-3.741,3.574,3.574,0,0,1,.105-.87.148.148,0,0,1,.01-.05l.656-2.476.615-2.311.17-.635c.03-.105.055-.21.08-.31q1.072-4.172,2.171-8.338c6.692-25.353,13.2-50.751,19.816-76.124,3.266-12.509,6.012-25.344,9.938-37.663,2.941-9.212,4.206-17.41,14.235-21.712a36.7,36.7,0,0,1,11.763-2.655c.346-.025.691-.045,1.036-.065,1.485-.085,2.981-.12,4.476-.12,2.276,0,4.552.075,6.807.155q5.771.2,11.544.41,39.508,1.41,79.016,2.816c2.565.09,5.141.18,7.712.18.515,0,1.03-.005,1.541-.01s1.02-.02,1.53-.04h0c.51-.015,1.02-.04,1.531-.065h0c.51-.03,1.015-.06,1.525-.1a50.49,50.49,0,0,0,6.067-.831c17.231-3.521,26.474-19.531,24.6-36.461a61.187,61.187,0,0,0-5.192-18.076q-.555-1.238-1.14-2.461c-.26-.54-.525-1.08-.8-1.621-.14-.27-.275-.535-.41-.8-.346-.67-.7-1.335-1.056-2-.255-.476-.515-.951-.78-1.421-.1-.185-.2-.37-.305-.555-.135-.24-.27-.485-.4-.73-.525-.976-1.026-1.966-1.526-2.956-.245-.495-.495-.991-.745-1.486-.125-.245-.255-.5-.38-.74-.07-.14-.145-.275-.225-.415l-1.821-2.921a6.872,6.872,0,0,1-.44-.765c-.02-.04-.04-.09-.06-.135s-.04-.1-.055-.14-.015-.06-.025-.09a4.61,4.61,0,0,1-.125-.506,3.644,3.644,0,0,1-.05-.615,3.759,3.759,0,0,1,1.971-3.306l3.656-1.94.135-.075c9.9-5.357,23.412-11.3,25.808-23.083a18.368,18.368,0,0,0,.31-2.221,18.757,18.757,0,0,0,.045-2.25c-.015-.375-.04-.751-.08-1.121s-.085-.75-.145-1.12c-.045-.28-.09-.555-.145-.83s-.12-.551-.185-.826c-.045-.185-.09-.365-.14-.545s-.105-.36-.16-.54c-.165-.54-.355-1.075-.565-1.6a18.342,18.342,0,0,0-.971-2.035c-.05-.09-.1-.175-.15-.26a1.1,1.1,0,0,0-.075-.13c-.025-.045-.045-.09-.07-.13-.065-.11-.125-.215-.195-.32l-.105-.15c-.035-.05-.075-.1-.115-.15l-.105-.136c-.07-.08-.135-.16-.2-.24-.3-.355-.58-.7-.875-1.06-.23-.28-.46-.565-.695-.845-.025-.035-.055-.07-.085-.105l-.03-.04a3.517,3.517,0,0,1-.5-.795,3.572,3.572,0,0,1-.29-.916,3.992,3.992,0,0,1-.055-.655,3.9,3.9,0,0,1,.2-1.235c.045-.125.1-.256.155-.376s.126-.24.2-.355a3.634,3.634,0,0,1,.491-.635,3.839,3.839,0,0,1,.295-.275l.02-.02.34-.24,2.551-1.861c3.976-3.016,7.817-6.362,10.023-10.8q.188-.375.345-.75.24-.562.42-1.126c.04-.125.075-.25.115-.375a14.017,14.017,0,0,0,.345-6.062c-.025-.155-.05-.305-.075-.46a21.853,21.853,0,0,0-.995-3.651c-.16-.455-.335-.9-.52-1.351-.12-.3-.25-.59-.38-.89-.415-.935-.871-1.86-1.341-2.776-.12-.235-.245-.475-.37-.71-.375-.715-.76-1.42-1.145-2.116q-2.3-4.179-4.6-8.367c-1.235-2.246-3.591-5.072-3.591-7.718a3.455,3.455,0,0,1,.04-.555,3.936,3.936,0,0,1,.12-.535,3.828,3.828,0,0,1,.195-.5,3,3,0,0,1,.26-.465,3.514,3.514,0,0,1,.32-.421,3.636,3.636,0,0,1,1.066-.835,13.591,13.591,0,0,1,2.261-.75c1.015-.31,2.03-.635,3.05-.915,12.655-3.422,26.924-5.532,38.333-12.249,3.976-2.341,7.517-5.662,9.313-9.914a14.305,14.305,0,0,0,.685-2.015,12.625,12.625,0,0,0,.165-5.817,12.977,12.977,0,0,0-.525-1.851q-.225-.608-.495-1.2c-.09-.2-.19-.395-.29-.59-.205-.395-.425-.781-.661-1.166a19.854,19.854,0,0,0-1.625-2.24c-8.663-10.389-17.276-20.737-25.223-31.7-2.141-2.956-4.327-5.912-6.507-8.892q-1.087-1.494-2.176-2.991c-1.445-2-2.881-4.012-4.286-6.042q-1.059-1.524-2.091-3.061c-1.721-2.561-3.391-5.157-4.972-7.8q-.953-1.582-1.855-3.186c-.3-.535-.6-1.075-.9-1.61q-.885-1.621-1.71-3.261-1.245-2.462-2.356-4.987c-.155-.35-.305-.705-.455-1.055q-1.575-3.707-2.811-7.563c-.125-.395-.245-.79-.36-1.18q-.525-1.772-.93-3.5c-.09-.385-.175-.771-.26-1.151-.33-1.525-.591-3.036-.791-4.521.005,0,0,0,0-.01-.1-.74-.18-1.481-.255-2.216,0,0,0,0,0-.01-.145-1.53-.225-3.041-.25-4.541a64.562,64.562,0,0,1,1.211-13.21c.28-1.49.61-2.976.98-4.461q.42-1.717.91-3.436c.12-.42.24-.835.365-1.251.245-.835.506-1.67.771-2.5.3-.946.615-1.886.935-2.836q.375-1.1.765-2.206c1.346-3.8,2.831-7.657,4.366-11.624q1.982-5.131,3.537-10.388.518-1.755.99-3.516.713-2.649,1.32-5.322c.1-.445.205-.89.3-1.335.3-1.341.566-2.686.826-4.032q.795-4.171,1.365-8.382.233-1.689.425-3.381c.335-2.876.59-5.762.781-8.653a197.589,197.589,0,0,0,.22-20.867.81.81,0,0,0-.005-.11c-.03-.825-.07-1.646-.115-2.466q-.135-2.467-.316-4.926c-.059-.821-.129-1.641-.2-2.461q-.18-2.117-.4-4.232-.623-5.919-1.42-11.933-.225-1.719-.475-3.441-.172-1.231-.36-2.461-.721-4.809-1.581-9.628-.623-3.459-1.325-6.913-.353-1.725-.726-3.451c-.25-1.145-.5-2.3-.77-3.441s-.535-2.291-.815-3.431c-5.317-21.692-13.5-42.614-26.4-59.894q-1.7-2.281-3.466-4.517c-.39-.5-.785-1-1.18-1.49a3.5,3.5,0,0,0-.365-.45,3.742,3.742,0,0,0-6.457,2.015.015.015,0,0,0,0,.02,2.825,2.825,0,0,0-.04.466v.045a212.42,212.42,0,0,1-10.139,50.816q-1.605,4.854-3.441,9.608-1.035,2.679-2.135,5.327c-.491,1.18-.991,2.35-1.5,3.521s-1.03,2.336-1.56,3.5c-.265.58-.53,1.16-.8,1.74-.12.261-.24.516-.36.771s-.24.515-.36.77q-.233.488-.48.975c-.485.971-1,1.926-1.53,2.871a164.733,164.733,0,0,1-10.544,15.645q-1.725,2.371-3.5,4.712-1.328,1.755-2.676,3.491t-2.726,3.451c-.685.86-1.38,1.716-2.075,2.566q-2.086,2.55-4.232,5.061-3.21,3.767-6.542,7.433-2.212,2.438-4.486,4.836-2.019,2.132-4.072,4.222a316.128,316.128,0,0,1-74.229,56.088,312.494,312.494,0,0,1-42.753,19.231,317.621,317.621,0,0,1-32.866,9.953,337.82,337.82,0,0,1-39.768,7.158q-2.715.33-5.437.62-5.851.622-11.738,1.075c-1.791.135-3.581.265-5.372.375q-4.546.292-9.1.49-2.731.12-5.472.2-7.292.227-14.579.226c-15.48,0-30.885-.736-45.975-2.041q-3.774-.323-7.518-.7t-7.457-.786c-13.139-1.47-26.223-3.346-39.278-5.441-11.578-1.856-23.122-3.877-34.666-5.942-1.65-.295-3.3-.585-4.951-.881s-3.3-.58-4.957-.865q-9.918-1.717-19.876-3.331c-1.661-.265-3.316-.53-4.977-.79s-3.326-.52-4.987-.775q-4.989-.766-9.978-1.5t-9.993-1.4q-2.5-.337-5.007-.671l-5-.645h0q-2.5-.315-5.007-.615c-1.67-.2-3.341-.4-5.012-.595a701.6,701.6,0,0,0-80.4-5q-3.482,0-6.963.045t-6.952.13q-8.7.217-17.391.736-3.473.2-6.947.46-8.688.645-17.365,1.61a550.737,550.737,0,0,0-73.7,13.385q-19.536,4.944-38.673,11.313c-5.136,1.706-10.288,3.371-15.4,5.147-4.211,1.46-8.4,3-12.519,4.7-3.111,1.281-6.157,2.991-9.328,4.2,0,0-2.956,1.31-4.486,1.985-.325.14-.645.3-.97.435-.11.04-.22.08-.335.116a4,4,0,0,1-.536.125,4.144,4.144,0,0,1-.555.04,3.753,3.753,0,0,1-3.751-3.752c0-.085,0-.17,0-.25s.01-.165.02-.245a.015.015,0,0,1,0-.02,3.717,3.717,0,0,1,1.07-2.13s.06-.056.17-.166c.325-.33.666-.65,1.006-.97q.907-.87,1.83-1.73,1.262-1.179,2.541-2.341,1.567-1.418,3.151-2.816,1.816-1.6,3.656-3.156c1.321-1.115,2.646-2.216,4.017-3.276,1.145-.88,2.3-1.746,3.461-2.611q1.7-1.268,3.426-2.511t3.461-2.466q1.74-1.222,3.5-2.42t3.526-2.381c1.186-.785,2.371-1.566,3.566-2.336s2.391-1.535,3.592-2.291,2.415-1.5,3.626-2.245,2.435-1.476,3.656-2.206,2.456-1.446,3.691-2.161,2.471-1.415,3.716-2.115c.62-.351,1.246-.7,1.871-1.046s1.25-.69,1.875-1.03,1.256-.68,1.881-1.02l1.891-1.006q1.9-1.005,3.8-1.99c1.27-.656,2.551-1.3,3.826-1.941s2.566-1.275,3.856-1.906,2.581-1.245,3.882-1.855,2.6-1.216,3.9-1.816,2.616-1.19,3.926-1.77,2.631-1.166,3.951-1.731,2.646-1.135,3.972-1.69,2.661-1.106,4-1.646,2.676-1.075,4.016-1.6,2.686-1.05,4.037-1.56,2.7-1.02,4.056-1.521,2.711-.99,4.071-1.475,2.726-.965,4.092-1.435,2.74-.936,4.111-1.4,2.746-.9,4.126-1.35,2.761-.881,4.142-1.306,2.77-.855,4.156-1.27,2.781-.825,4.176-1.226,2.786-.8,4.182-1.185,2.8-.77,4.2-1.145,2.806-.741,4.211-1.1,2.816-.715,4.222-1.065,2.821-.685,4.236-1.02,2.826-.661,4.241-.976,2.836-.635,4.257-.94,2.841-.605,4.261-.9,2.846-.575,4.271-.856c.716-.14,1.426-.275,2.141-.415l2.136-.4q1.072-.2,2.141-.39c.715-.13,1.43-.255,2.145-.385q2.147-.375,4.292-.735c1.43-.24,2.866-.47,4.3-.7s2.866-.445,4.3-.655,2.871-.42,4.307-.615,2.871-.39,4.306-.575,2.871-.365,4.312-.54,2.87-.335,4.311-.5,2.871-.311,4.311-.456,2.876-.285,4.312-.415,2.876-.26,4.311-.38,2.876-.23,4.311-.335,2.876-.2,4.312-.3,2.871-.18,4.306-.26,2.871-.15,4.307-.22,2.866-.125,4.3-.18,2.866-.1,4.3-.145,2.861-.075,4.292-.1,2.851-.05,4.281-.065,2.851-.025,4.277-.025h.765c1.17,0,2.336,0,3.5.01,1.42.01,2.841.03,4.261.05s2.836.055,4.252.09,2.831.08,4.241.13,2.821.105,4.231.165,2.816.13,4.222.205,2.806.155,4.211.24,2.8.18,4.192.28c.34.025.69.075,1.03.075,55.1,4.061,109.545,12.689,164.533,17.756q3.969.368,7.947.7,3.826.315,7.663.595,4.246.308,8.493.57,3.878.24,7.757.435,15.966.812,31.97.836c13.975,0,27.944-.5,41.854-1.641,1.815-.145,3.636-.3,5.452-.475.18-.015.355-.03.535-.05q2.662-.248,5.322-.535,13.466-1.433,26.828-3.716,2.934-.51,5.862-1.056,1.462-.278,2.926-.565,2.927-.57,5.842-1.19c66.211-14.055,124.175-50.166,159.046-109.205q1.794-3.039,3.516-6.177c.76-1.4,1.516-2.806,2.256-4.232s1.465-2.856,2.176-4.306q1.6-3.264,3.091-6.6.99-2.229,1.93-4.482.465-1.133.921-2.265c.21-.521.415-1.041.615-1.566q1.523-3.917,2.851-7.908.532-1.59,1.025-3.2c.18-.58.355-1.165.53-1.75.52-1.756,1.005-3.511,1.456-5.277.1-.395.2-.785.295-1.18.2-.785.38-1.571.56-2.361.09-.395.18-.785.265-1.18q.255-1.187.5-2.371c.155-.79.31-1.581.45-2.371q.75-4.157,1.206-8.318c.085-.8.165-1.585.23-2.38q.21-2.379.31-4.752.1-2.393.135-4.8v-.025A3.749,3.749,0,0,1,1317.9,599c.05.05.1.1.145.15q2.07,2.122,4.1,4.281,6.693,7.106,12.97,14.58,2.085,2.5,4.121,5.036c5.422,6.768,10.543,13.78,15.29,21.042a262.152,262.152,0,0,1,19.731,36.107c.08.175.155.345.23.515s.155.34.23.515c.065.145.13.295.19.44l.195.435c14.5,33.076,22.248,69.778,18.4,105.159q-.165,1.516-.36,3.031c-.19,1.521-.41,3.036-.645,4.552q-.3,1.89-.64,3.771t-.735,3.761q-.782,3.751-1.756,7.468c-.26.99-.525,1.98-.81,2.966v0c-.105.37-.21.74-.32,1.11q-.488,1.658-1.016,3.316c-.11.35-.22.7-.335,1.045s-.225.7-.345,1.051a161.842,161.842,0,0,1-11.4,26.248q-1.05,1.929-2.16,3.836c-.285.486-.555.981-.811,1.471-.085.165-.17.325-.25.49a32.073,32.073,0,0,0-1.3,2.971c-.25.66-.475,1.325-.68,1.991-.1.335-.2.67-.285,1-.18.67-.335,1.34-.47,2.016-1.261,6.447-.421,13.1,1.955,20,.635,1.851,1.351,3.666,2.121,5.452.31.715.63,1.425.955,2.136s.665,1.4,1.011,2.1q1.035,2.094,2.16,4.142c1.311,2.39,2.706,4.736,4.146,7.057q.616,1,1.246,1.985c2.1,3.292,4.271,6.538,6.432,9.769q2.025,3.022,4.1,6.012t4.2,5.936q4.246,5.9,8.712,11.649,2.971,3.834,6.037,7.6,6.123,7.516,12.594,14.749a23.018,23.018,0,0,1,1.481,1.836c.23.32.455.645.675.98s.425.67.63,1.016A27.579,27.579,0,0,1,1431.438,975.625Z" transform="translate(-448.608 -448.607)"/>
      <path class="cls-2" d="M1158.192,919.793a4.374,4.374,0,0,1-1.114,2.689c-.628.8-1.279,1.569-1.9,2.37q-2.018,2.59-4.143,5.094-4.245,5-8.891,9.642t-9.625,8.908q-4.985,4.27-10.275,8.168t-10.841,7.423q-5.547,3.524-11.321,6.672t-11.716,5.914q-3.711,1.728-7.486,3.31c-37.086,15.545-77.8,20.873-117.782,20.469-13.688-.138-27.365-.928-40.994-2.193-36.7-3.406-73.014-10.384-109.025-18.526-43.319-9.794-87.743-13.54-131.973-12.369a653.75,653.75,0,0,0-212.458,41.648q-5.034,1.905-10.043,3.876a27.415,27.415,0,0,1-5.447,2.026,3.934,3.934,0,0,1-2.931-.585,3.745,3.745,0,0,1-1.5-2.166,3.669,3.669,0,0,1-.105-.735,1.087,1.087,0,0,1-.01-.18,3.789,3.789,0,0,1,.511-1.891,5.992,5.992,0,0,1,1.5-1.53c.425-.35.855-.7,1.281-1.051,0,0,.015-.01.02-.015,12.234-10.623,26.5-18.728,40.157-27.337a484,484,0,0,1,108.335-50.748A395.9,395.9,0,0,1,755.978,910.84c52.066,4.382,102.913,17.146,154.439,25.209,52.932,8.282,107.51,14.049,160.867,6.342a283.751,283.751,0,0,0,50.366-12.044q1.777-.6,3.54-1.242t3.517-1.318q1.753-.678,3.492-1.393t3.465-1.466q1.725-.751,3.435-1.536t3.4-1.6q1.694-.819,3.371-1.67t3.336-1.732c1.146-.61,2.274-1.253,3.42-1.863a3.73,3.73,0,0,1,5.562,3.27Z" transform="translate(-448.608 -448.607)"/>
      <path class="cls-2" d="M1104.557,1063.275c0,1.588-1.132,2.784-2.066,3.958-1.067,1.343-2.172,2.654-3.285,3.958l-.861,1.006a160.67,160.67,0,0,1-41.646,34.366,208.8,208.8,0,0,1-54.82,21.615q-4.362,1.065-8.765,1.952c-2.406.485-5.259,1.467-7.72,1.467-58.251,10.183-120.9.89-178.1-11.679-57.54-12.644-115.349-27.764-174.492-29.3-10.242-.27-20.5-.03-30.726.656a418.382,418.382,0,0,0-73.43,11.383c-1.888.47-3.77.961-5.648,1.461l-.285.075-.014.005-16.243,4.851a3.621,3.621,0,0,1-1.167.195,3.715,3.715,0,0,1-3.677-3.751,3.779,3.779,0,0,1,1.627-3.116l12.463-8.768,1.211-.85c.966-.68,1.932-1.34,2.913-2a171.246,171.246,0,0,1,33.447-17.41,301.561,301.561,0,0,1,36.992-11.954c48.4-11.879,99.572-13.239,149.036-8.993,47.543,4.081,93.963,15.97,141.016,23.483,48.332,7.712,98.16,13.084,146.879,5.907a255.144,255.144,0,0,0,45.989-11.219q8.855-3.062,17.478-6.762c2.6-1.116,5.178-2.3,7.742-3.5a5.746,5.746,0,0,1,2.476-.791A3.713,3.713,0,0,1,1104.557,1063.275Z" transform="translate(-448.608 -448.607)"/>
      <path class="cls-2" d="M1104.555,1168.593a3.761,3.761,0,0,1-.859,2.385c-.091.1-.186.2-.277.3s-.186.195-.276.3c-19.158,20.707-39.154,40.924-60.317,59.985-11.827,10.648-24.378,20.831-38.471,29-20.213,11.714-41.792,19.736-63.718,22.792q-5.8.812-11.616,1.166t-11.637.26q-5.81-.1-11.616-.66-5.787-.564-11.551-1.6t-11.44-2.556q-5.689-1.515-11.29-3.521t-11.088-4.511q-5.487-2.5-10.838-5.507c-5.33-3-10.35-6.752-15.439-10.243-1.315-.9-2.982-1.628-3.794-3.1a3.757,3.757,0,0,1,2.7-5.406,9.819,9.819,0,0,1,3.468.474q1.935.4,3.86.839c2.471.563,5.012.931,7.513,1.342q3.837.63,7.69,1.146,7.7,1.032,15.453,1.609t15.511.7q7.764.126,15.525-.2t15.493-1.091c2.438-.243,4.918-.428,7.336-.831a254.257,254.257,0,0,0,68.506-18.361c22.83-9.843,41.3-24.147,61.292-37.8q21.983-15,43.957-29.99c.025-.02.055-.039.086-.059a3.768,3.768,0,0,1,5.833,3.136Z" transform="translate(-448.608 -448.607)"/>
      <path class="cls-2" d="M1218.722,634.926a3.716,3.716,0,0,1-.651,2.11.062.062,0,0,0-.01.015c-.2.295-3.351,4.922-3.5,5.122a142.269,142.269,0,0,1-10.678,14.919c-17.821,21.766-38.9,40.278-66.386,48.281-28.867,8.406-60.112,6.712-89.264.69-19.166-3.96-37.561-10.209-54.443-20.261a15.046,15.046,0,0,1-1.49-1.01.378.378,0,0,0-.07-.055,3.688,3.688,0,0,1-1.386-2.871,3.825,3.825,0,0,1,3.9-3.752,3.6,3.6,0,0,1,.4.02,14.95,14.95,0,0,1,1.84.236,339.725,339.725,0,0,0,82.23,5.14,294.74,294.74,0,0,0,37.679-4.475,237.375,237.375,0,0,0,33.721-8.948q8.274-2.881,16.29-6.457c5.276-2.366,10.468-4.982,15.485-7.858a147.178,147.178,0,0,0,16.535-10.948,102.5,102.5,0,0,0,11.249-10.309c.46-.48.935-.95,1.385-1.445a7.547,7.547,0,0,1,1.416-1.32,3.742,3.742,0,0,1,2-.576.33.33,0,0,1,.07,0,3.736,3.736,0,0,1,3.617,3.076A3.278,3.278,0,0,1,1218.722,634.926Z" transform="translate(-448.608 -448.607)"/>
    </g>
    <g>
      <path class="cls-2" d="M2254.637,789.627v25.1H2150V679.585h102.127v25.1h-71.045v29.344h62.744v24.326h-62.744v31.275Z" transform="translate(-448.608 -448.607)"/>
      <path class="cls-2" d="M2294.5,801.018q-16.122-16.023-16.12-45.755V679.585h31.275V754.1q0,36.3,30.117,36.295,14.668,0,22.394-8.784t7.723-27.511V679.585h30.889v75.678q0,29.731-16.12,45.755t-45.079,16.023Q2310.621,817.041,2294.5,801.018Z" transform="translate(-448.608 -448.607)"/>
      <path class="cls-2" d="M2517.77,814.724l-26.062-37.646h-28.766v37.646h-31.275V679.585h58.5q17.954,0,31.179,5.984a46.348,46.348,0,0,1,20.367,16.99q7.14,11,7.143,26.062t-7.239,25.966q-7.24,10.909-20.561,16.7l30.31,43.437Zm-7.915-103.575q-7.34-6.081-21.429-6.081h-25.484v47.106h25.484q14.09,0,21.429-6.178t7.336-17.375Q2517.191,717.232,2509.855,711.149Z" transform="translate(-448.608 -448.607)"/>
      <path class="cls-2" d="M2601.071,807.967a67.334,67.334,0,0,1-26.449-25,71.884,71.884,0,0,1,0-71.625,67.356,67.356,0,0,1,26.449-25q16.891-9.072,37.936-9.074t37.839,9.074a68.925,68.925,0,0,1,0,121.625q-16.8,9.078-37.839,9.074T2601.071,807.967Zm59.558-23.07a39.491,39.491,0,0,0,15.155-15.348,48.327,48.327,0,0,0,0-44.789,39.491,39.491,0,0,0-15.155-15.348,45.237,45.237,0,0,0-43.244,0,39.464,39.464,0,0,0-15.155,15.348,48.319,48.319,0,0,0,0,44.789,39.464,39.464,0,0,0,15.155,15.348,45.237,45.237,0,0,0,43.244,0Z" transform="translate(-448.608 -448.607)"/>
      <path class="cls-2" d="M2826.174,685.569a46.351,46.351,0,0,1,20.368,16.99q7.14,11,7.143,26.062,0,14.87-7.143,25.966a45.487,45.487,0,0,1-20.368,16.989q-13.226,5.89-31.179,5.888h-27.22v37.26H2736.5V679.585H2795Q2812.95,679.585,2826.174,685.569ZM2814.688,745.9q7.334-6.081,7.335-17.279,0-11.389-7.335-17.472t-21.43-6.081h-25.483v46.913h25.483Q2807.349,751.981,2814.688,745.9Z" transform="translate(-448.608 -448.607)"/>
      <path class="cls-2" d="M2980.523,789.627v25.1H2875.886V679.585h102.127v25.1h-71.045v29.344h62.744v24.326h-62.744v31.275Z" transform="translate(-448.608 -448.607)"/>
      <path class="cls-2" d="M3094.425,785.766h-62.744l-11.97,28.958h-32.047L3047.9,679.585h30.889l60.426,135.139h-32.819Zm-9.846-23.746-21.43-51.739L3041.72,762.02Z" transform="translate(-448.608 -448.607)"/>
      <path class="cls-2" d="M3277.247,679.585V814.724H3251.57l-67.376-82.049v82.049h-30.889V679.585h25.869l67.184,82.049V679.585Z" transform="translate(-448.608 -448.607)"/>
    </g>
    <g>
      <path class="cls-1" d="M2233.594,988.886v47.878h-31.275V988.5L2150,901.624h33.206l36.1,60.041,36.1-60.041h30.7Z" transform="translate(-448.608 -448.607)"/>
      <path class="cls-1" d="M2320.951,1030.007a67.328,67.328,0,0,1-26.449-25,71.884,71.884,0,0,1,0-71.625,67.358,67.358,0,0,1,26.449-25q16.891-9.072,37.936-9.073t37.839,9.073a68.925,68.925,0,0,1,0,121.626q-16.8,9.076-37.839,9.074T2320.951,1030.007Zm59.558-23.07a39.491,39.491,0,0,0,15.155-15.348,48.327,48.327,0,0,0,0-44.789,39.5,39.5,0,0,0-15.155-15.349,45.239,45.239,0,0,0-43.245,0A39.471,39.471,0,0,0,2322.11,946.8a48.319,48.319,0,0,0,0,44.789,39.461,39.461,0,0,0,15.154,15.348,45.239,45.239,0,0,0,43.245,0Z" transform="translate(-448.608 -448.607)"/>
      <path class="cls-1" d="M2471.341,1023.057q-16.122-16.022-16.12-45.755V901.624H2486.5v74.52q0,36.3,30.117,36.295,14.669,0,22.394-8.784t7.723-27.511v-74.52h30.889V977.3q0,29.733-16.12,45.755t-45.079,16.024Q2487.461,1039.081,2471.341,1023.057Z" transform="translate(-448.608 -448.607)"/>
      <path class="cls-1" d="M2634.185,927.108H2590.94V901.624h117.765v25.484H2665.46v109.656h-31.275Z" transform="translate(-448.608 -448.607)"/>
      <path class="cls-1" d="M2849.442,901.624v135.14h-31.275V981.357h-61.392v55.407H2725.5V901.624h31.275v53.284h61.392V901.624Z" transform="translate(-448.608 -448.607)"/>
    </g>
    <g>
      <path class="cls-2" d="M2272.942,1258.755l-.193-81.061-39.758,66.778H2218.9l-39.566-65.041v79.324H2150v-135.1h25.862l50.567,83.956,49.794-83.956h25.67l.386,135.1Z" transform="translate(-448.608 -448.607)"/>
      <path class="cls-2" d="M2361.817,1252a67.3,67.3,0,0,1-26.441-24.993,71.858,71.858,0,0,1,0-71.6,67.333,67.333,0,0,1,26.441-24.994q16.887-9.069,37.924-9.071t37.829,9.071a68.906,68.906,0,0,1,0,121.591q-16.791,9.075-37.829,9.071T2361.817,1252Zm59.541-23.063a39.468,39.468,0,0,0,15.15-15.344,48.308,48.308,0,0,0,0-44.776,39.468,39.468,0,0,0-15.15-15.344,45.222,45.222,0,0,0-43.233,0,39.468,39.468,0,0,0-15.15,15.344,48.308,48.308,0,0,0,0,44.776,39.468,39.468,0,0,0,15.15,15.344,45.229,45.229,0,0,0,43.233,0Z" transform="translate(-448.608 -448.607)"/>
      <path class="cls-2" d="M2622.659,1123.653l-58.479,135.1H2533.3l-58.286-135.1h33.775l41.11,96.5,41.688-96.5Z" transform="translate(-448.608 -448.607)"/>
      <path class="cls-2" d="M2738.458,1233.664v25.091H2633.851v-135.1h102.1v25.09h-71.024v29.336h62.726V1202.4h-62.726v31.266Z" transform="translate(-448.608 -448.607)"/>
      <path class="cls-2" d="M2886.3,1258.755l-.193-81.061-39.758,66.778h-14.089l-39.566-65.041v79.324h-29.336v-135.1h25.862l50.567,83.956,49.794-83.956h25.669l.386,135.1Z" transform="translate(-448.608 -448.607)"/>
      <path class="cls-2" d="M3052.274,1233.664v25.091H2947.667v-135.1h102.1v25.09h-71.024v29.336h62.725V1202.4h-62.725v31.266Z" transform="translate(-448.608 -448.607)"/>
      <path class="cls-2" d="M3201.077,1123.653v135.1h-25.67l-67.357-82.026v82.026h-30.88v-135.1h25.861l67.165,82.026v-82.026Z" transform="translate(-448.608 -448.607)"/>
      <path class="cls-2" d="M3261.1,1149.129h-43.232v-25.476H3335.6v25.476h-43.233v109.626H3261.1Z" transform="translate(-448.608 -448.607)"/>
    </g>
  </g>
</svg>
