<svg id="Livello_1" data-name="Livello 1" xmlns="http://www.w3.org/2000/svg" width="3102.783" height="2882.516" viewBox="0 0 3102.783 2882.516">
  <defs>
    <style>
      .cls-1 {
        fill: #fc0;
      }

      .cls-2 {
        fill: #fff;
      }
    </style>
  </defs>
  <g>
    <g>
      <path class="cls-1" d="M3547.253,1256.488l-657.43,477.65a10.01,10.01,0,0,0-3.64,11.18l251.12,772.86a10,10,0,0,1-15.38,11.18l-657.43-477.66a10,10,0,0,0-11.76,0l-657.43,477.66a10,10,0,0,1-15.38-11.18q2.565-7.875,5.12-15.76,6.705-20.61,13.4-41.24,9.375-28.875,18.77-57.75,10.6-32.655,21.21-65.3,10.38-31.935,20.75-63.87l17.37-53.46c8.32-25.61,17.39-51,27.8-76l13.57-32.67q9.615-23.115,19.23-46.26,4.1-9.84,8.2-19.71t8.19-19.72c.2-.48.4-.95.6-1.43,2.28-5.36,4.81-9.92,11.27-10.45.36-.03.73-.06,1.09-.08,8.96-.62,18.15.18,27.1.25l7.46.06c2.29.02,4.58.03,6.88.05,1.33,0,2.66.01,3.99.01,1.92.01,3.84.02,5.76.02s3.83.01,5.75.01h84.87c19.43,0,45.1-.74,71.22-6.48,29.49-6.48,54.66-18.5,74.82-35.7a155.126,155.126,0,0,0,17.8-17.9c21.84-25.84,35.11-58.24,38.37-93.7q.8-8.55.79-17.07c0-.86-.01-1.73-.02-2.59-.01-.7-.03-1.39-.04-2.07-.01-.41-.02-.82-.04-1.23-.01-.64-.04-1.27-.07-1.9-.02-.54-.05-1.08-.08-1.62-.02-.65-.06-1.3-.1-1.95-.04-.61-.08-1.22-.13-1.82-.04-.72-.1-1.44-.16-2.16-.01-.1-.02-.2-.03-.31-.07-.83-.14-1.66-.23-2.48q-.12-1.29-.27-2.58c-.31-2.76-.69-5.52-1.12-8.26-.11-.63-.21-1.26-.32-1.89-.09-.57-.19-1.14-.3-1.7-.1-.61-.22-1.23-.34-1.84-.15-.84-.32-1.67-.49-2.5a6.349,6.349,0,0,1,2.65-6.51c1.1-.76,2.23-1.55,3.38-2.39.52-.38,1.05-.77,1.58-1.16.65-.49,1.31-1,1.97-1.52.47-.37.94-.75,1.42-1.14.68-.55,1.37-1.12,2.05-1.71.57-.48,1.13-.98,1.69-1.49.59-.52,1.17-1.06,1.75-1.61a82.856,82.856,0,0,0,7.96-8.61c.26-.31.51-.63.76-.95.61-.78,1.21-1.59,1.8-2.41.23-.32.46-.64.69-.97.65-.93,1.29-1.89,1.91-2.87a81.02,81.02,0,0,0,12.2-43.64c0-.64-.01-1.27-.02-1.91-.01-.43-.02-.87-.04-1.31-.02-.54-.04-1.08-.07-1.62-.01-.4-.04-.81-.07-1.21-.04-.64-.09-1.27-.14-1.91-.05-.59-.1-1.18-.17-1.77-.05-.54-.11-1.09-.18-1.63-.06-.48-.12-.97-.19-1.45a1.366,1.366,0,0,0-.02-.19,6.3,6.3,0,0,1,1.58-5.08c1.9-1.98,3.72-4,5.43-6.06.38-.45.76-.91,1.12-1.37q.4-.465.78-.96c.54-.67,1.07-1.36,1.58-2.05.26-.34.52-.68.76-1.03.31-.41.62-.83.91-1.25a4.665,4.665,0,0,0,.36-.51c.46-.64.9-1.29,1.34-1.94a.991.991,0,0,0,.11-.17c.4-.58.78-1.16,1.14-1.75q.3-.45.57-.9c.26-.4.51-.81.74-1.21.24-.37.46-.75.68-1.13.17-.28.34-.56.49-.85.3-.5.58-1.01.85-1.51.37-.66.72-1.32,1.06-1.98.26-.48.5-.97.73-1.45.18-.34.36-.69.52-1.04.13-.26.25-.51.36-.77.26-.53.51-1.07.75-1.61q1.02-2.25,1.9-4.55c.26-.68.52-1.36.76-2.05.22-.61.43-1.22.64-1.83q1.08-3.24,1.92-6.55c.19-.71.36-1.43.52-2.14.08-.33.16-.66.23-.99.04-.19.08-.39.12-.58s.08-.38.12-.58c.15-.72.29-1.45.42-2.17s.25-1.45.37-2.18c.08-.51.16-1.03.23-1.54.03-.18.05-.35.07-.53a2.336,2.336,0,0,0,.04-.26c.09-.69.17-1.38.25-2.08.08-.73.16-1.47.22-2.22.07-.69.12-1.39.17-2.09l.03-.51c.04-.62.08-1.25.1-1.87.04-.71.06-1.42.08-2.13v-.24c.01-.7.02-1.4.02-2.1v-.45c0-.96-.02-1.92-.05-2.89s-.07-1.92-.14-2.89c-.02-.54-.06-1.07-.1-1.61-.03-.48-.07-.97-.12-1.45-.03-.39-.07-.78-.11-1.17-.06-.72-.14-1.44-.23-2.17-.1-.89-.21-1.79-.34-2.68-.05-.32-.09-.63-.15-.95-.08-.61-.18-1.21-.29-1.82-.2-1.21-.42-2.43-.67-3.64-.07-.37-.14-.74-.22-1.11-.05-.24-.1-.48-.16-.72-.2-.8-.36-1.61-.55-2.4-.03-.15-.06-.3-.1-.45-.07-.31-.15-.61-.23-.91-.06-.23-.12-.46-.18-.68a2.705,2.705,0,0,1-.06-.98,1.628,1.628,0,0,1,.07-.3,2.012,2.012,0,0,1,.9-1.08c.43-.2.86-.4,1.29-.61.14-.06.28-.12.42-.19.58-.27,1.16-.54,1.73-.82.29-.14.57-.28.86-.42l.87-.42c.16-.08.31-.16.47-.24,2.36-1.17,4.72-2.4,7.07-3.71,43.46-24.12,68.33-58.67,70.01-97.3,1.09-24.97-8.08-50.84-24.53-69.2-8.09-9.05-16.11-18.43-23.81-27.9-15.37-18.87-30.02-38.71-43.57-58.96l-.91-1.37c-12.34-18.46-24-35.9-30.1-53.56-4.49-13.03-2.33-18.49.05-22.58a368.453,368.453,0,0,0,32.45-73.3,360.77,360.77,0,0,0,16.54-101.61,434.54,434.54,0,0,0-10.01-100.79c-.68-3.14-1.38-6.28-2.13-9.42-.7-2.99-1.43-5.96-2.2-8.93-.25-1-.51-1.99-.77-2.99-.14-.53-.28-1.07-.43-1.6-.36-1.35-.72-2.7-1.09-4.05-.47-1.71-.95-3.41-1.44-5.12-.32-1.12-.64-2.24-.97-3.36-.12-.41-.24-.82-.37-1.23q-1.35-4.575-2.81-9.15c-.39-1.24-.79-2.48-1.19-3.72-.39-1.21-.79-2.42-1.2-3.64-.38-1.14-.76-2.27-1.15-3.4q-1.185-3.51-2.44-7.01-1.74-4.89-3.58-9.77c-.54-1.41-1.07-2.82-1.62-4.22q-3.39-8.715-7.09-17.38c-.32-.76-.65-1.52-.98-2.28-.43-1-.87-1.99-1.31-2.99-.65-1.49-1.32-2.99-1.99-4.47q-2.01-4.47-4.11-8.92c-.69-1.48-1.4-2.96-2.11-4.43-.15-.32-.31-.64-.46-.96-.55-1.14-1.11-2.27-1.67-3.41q-1.11-2.235-2.23-4.46c-.74-1.47-1.48-2.93-2.24-4.39-.3-.59-.6-1.17-.91-1.75-1.44-2.65-3.61-5.68-4.67-8.82a10.267,10.267,0,0,1-.61-4.22,16.928,16.928,0,0,1,1.07-4.08c.47-1.29.89-2.59,1.31-3.89.28-.84.55-1.69.82-2.53.31-.95.63-1.91.94-2.87.35-1.07.69-2.15,1.04-3.22.39-1.18.77-2.36,1.15-3.54l1.26-3.87,1.35-4.17c.49-1.49.97-2.97,1.46-4.46.51-1.58,1.02-3.17,1.54-4.75q.81-2.5,1.63-5.02c.57-1.76,1.14-3.51,1.71-5.27.6-1.84,1.2-3.69,1.8-5.53.62-1.92,1.25-3.84,1.87-5.76.65-1.99,1.3-3.99,1.94-5.98.67-2.07,1.35-4.13,2.02-6.2q1.035-3.195,2.08-6.39c.71-2.2,1.42-4.39,2.13-6.59.74-2.25,1.47-4.51,2.2-6.76l2.25-6.93q1.155-3.54,2.3-7.08c.79-2.41,1.57-4.81,2.35-7.22.8-2.45,1.59-4.9,2.39-7.35l2.43-7.47q1.23-3.8,2.46-7.58,1.245-3.84,2.49-7.67c.84-2.59,1.68-5.17,2.52-7.76q1.275-3.915,2.54-7.82c.86-2.63,1.71-5.26,2.57-7.89s1.72-5.29,2.57-7.93q1.3-3.99,2.59-7.97c.87-2.67,1.74-5.33,2.6-8s1.74-5.33,2.6-8,1.74-5.34,2.6-8.01,1.74-5.33,2.6-8q1.3-3.975,2.59-7.97c.86-2.65,1.72-5.29,2.58-7.94.86-2.63,1.71-5.26,2.57-7.89.85-2.61,1.69-5.22,2.54-7.84.84-2.58,1.69-5.17,2.53-7.76q1.245-3.84,2.49-7.69,1.245-3.795,2.47-7.59c.81-2.49,1.62-4.99,2.43-7.48.8-2.46,1.6-4.91,2.4-7.37.78-2.41,1.56-4.83,2.35-7.24q1.155-3.555,2.31-7.1c.75-2.32,1.5-4.63,2.25-6.95.74-2.26,1.47-4.52,2.21-6.79q1.065-3.3,2.15-6.61c.69-2.14,1.39-4.28,2.08-6.42.68-2.07,1.35-4.15,2.03-6.22.65-2.01,1.3-4.01,1.95-6.02.63-1.93,1.25-3.86,1.88-5.79.6-1.85,1.21-3.7,1.81-5.55.57-1.77,1.15-3.54,1.72-5.31.55-1.69,1.1-3.37,1.64-5.06.52-1.59,1.04-3.19,1.56-4.78.49-1.5.97-3,1.46-4.51.46-1.4.91-2.8,1.37-4.21.42-1.3.85-2.6,1.27-3.9.39-1.2.78-2.4,1.17-3.59.35-1.09.7-2.18,1.06-3.26.31-.98.63-1.95.95-2.93.27-.85.55-1.71.83-2.57.24-.73.48-1.47.72-2.2.2-.61.39-1.22.59-1.84.16-.48.32-.96.47-1.44.12-.35.23-.7.34-1.05.07-.21.14-.42.21-.64.02-.07.05-.14.07-.21a10,10,0,0,1,19.02,0l251.12,772.86a9.981,9.981,0,0,0,9.5,6.91h812.63A9.995,9.995,0,0,1,3547.253,1256.488Z" transform="translate(-448.608 -451.73)"/>
      <path class="cls-2" d="M2413.633,1505.428c-.01.63-.02,1.26-.05,1.89-1.19,27.31-24.67,47.58-46.91,59.92-9.11,5.06-18.83,8.91-28.51,12.75l-16.92,6.71c-1.69.67-4.86,1.23-5.76,3.04-1.04,2.11,1.16,4.55,2.16,6.21,5.65,9.41,10.68,19.32,13.52,29.97a62.466,62.466,0,0,1,1.37,27.94c-.23,1.15-.5,2.3-.81,3.44-.21.76-.43,1.52-.68,2.26s-.51,1.49-.79,2.23a49.842,49.842,0,0,1-4.06,8.14c-.53.86-1.08,1.71-1.66,2.54a71.9,71.9,0,0,1-10.34,11.76c-3.26,3.02-6.68,5.88-10.18,8.62-1.31,1.03-4.73,2.71-6.58,4.51a2.5,2.5,0,0,0-.23.23c-.08.08-.15.16-.22.23s-.13.16-.19.24a3.3,3.3,0,0,0-.42.71,2.542,2.542,0,0,0-.14.47,1.641,1.641,0,0,0-.02.23,5.271,5.271,0,0,0,.52,2.22c.18.41.39.81.59,1.2,7.07,13.99,10.73,32.78,1.84,46.82-5.06,7.99-13.35,13.27-21.37,18.29-8.37,5.23-17,10.39-25.38,15.63a132.446,132.446,0,0,1,7.28,18.15q.6,1.875,1.14,3.75c.54,1.89,1.05,3.78,1.51,5.69.3,1.27.59,2.55.87,3.83s.52,2.56.76,3.85c.42,2.25.78,4.52,1.08,6.79.15,1.13.28,2.27.41,3.41s.23,2.28.33,3.42a136.413,136.413,0,0,1-4.68,49.03c-.15.52-.3,1.04-.46,1.55-.35,1.2-.73,2.39-1.13,3.57a123.154,123.154,0,0,1-7.87,18.48c-.32.61-.65,1.21-.98,1.81-.99,1.81-2.04,3.59-3.13,5.35s-2.23,3.49-3.42,5.19q-2.97,4.26-6.35,8.26l-.57.66c-.54.63-1.09,1.26-1.64,1.87-.75.84-1.51,1.66-2.29,2.48a109.6,109.6,0,0,1-8.14,7.7c-32.11,27.4-76.36,31.41-116.83,31.41h-84.87c-21.74,0-43.48-.3-65.2-.47q-6.36-.045-12.71-.08h-1.34c-.5,0-1,0-1.5.01-.74.01-1.47.03-2.21.07a30.872,30.872,0,0,0-5.28.67c-.38.09-.75.19-1.12.3-.52.15-1.04.32-1.55.52-6.7,2.59-8.85,9.51-11.25,15.65-2.96,7.59-6.15,15.09-9.28,22.61q-8.2,19.725-16.4,39.45-16.4,39.465-32.8,78.91-4.185,10.065-8.37,20.14l-16.41,39.48c-4.03,9.68-8.03,19.34-11.77,29.14-.47,1.24-1,2.46-1.52,3.68-.1.25-.21.51-.32.76a7.5,7.5,0,0,1-7.05,4.95,2.68,2.68,0,0,1-.4-.02,7.509,7.509,0,0,1-7.1-7.48,7.147,7.147,0,0,1,.21-1.74.3.3,0,0,1,.02-.1l1.31-4.95,1.23-4.62.34-1.27c.06-.21.11-.42.16-.62q2.145-8.34,4.34-16.67c13.38-50.69,26.4-101.47,39.62-152.2,6.53-25.01,12.02-50.67,19.87-75.3,5.88-18.42,8.41-34.81,28.46-43.41a73.359,73.359,0,0,1,23.52-5.31c.69-.05,1.38-.09,2.07-.13,2.97-.17,5.96-.24,8.95-.24,4.55,0,9.1.15,13.61.31q11.535.405,23.08.82,78.99,2.82,157.98,5.63c5.13.18,10.28.36,15.42.36,1.03,0,2.06-.01,3.08-.02s2.04-.04,3.06-.08h.01c1.02-.03,2.04-.08,3.06-.13h.01c1.02-.06,2.03-.12,3.05-.2a101.314,101.314,0,0,0,12.13-1.66c34.45-7.04,52.93-39.05,49.19-72.9-1.39-12.53-5.24-24.59-10.38-36.14q-1.11-2.475-2.28-4.92c-.52-1.08-1.05-2.16-1.6-3.24-.28-.54-.55-1.07-.82-1.61q-1.035-2.01-2.11-3.99c-.51-.95-1.03-1.9-1.56-2.84-.2-.37-.4-.74-.61-1.11-.27-.48-.54-.97-.81-1.46-1.05-1.95-2.05-3.93-3.05-5.91-.49-.99-.99-1.98-1.49-2.97-.25-.49-.51-.99-.76-1.48-.14-.28-.29-.55-.45-.83l-3.64-5.84a13.743,13.743,0,0,1-.88-1.53c-.04-.08-.08-.18-.12-.27s-.08-.19-.11-.28c-.02-.06-.03-.12-.05-.18a9.3,9.3,0,0,1-.25-1.01,7.289,7.289,0,0,1-.1-1.23,7.517,7.517,0,0,1,3.94-6.61l7.31-3.88.27-.15c19.79-10.71,46.81-22.59,51.6-46.15a36.759,36.759,0,0,0,.62-4.44,37.515,37.515,0,0,0,.09-4.5c-.03-.75-.08-1.5-.16-2.24s-.17-1.5-.29-2.24c-.09-.56-.18-1.11-.29-1.66s-.24-1.1-.37-1.65c-.09-.37-.18-.73-.28-1.09s-.21-.72-.32-1.08c-.33-1.08-.71-2.15-1.13-3.19a37.031,37.031,0,0,0-1.94-4.07c-.1-.18-.19-.35-.3-.52a2.2,2.2,0,0,0-.15-.26c-.05-.09-.09-.18-.14-.26-.13-.22-.25-.43-.39-.64l-.21-.3c-.07-.1-.15-.2-.23-.3l-.21-.27c-.14-.16-.27-.32-.4-.48-.59-.71-1.16-1.41-1.75-2.12-.46-.56-.92-1.13-1.39-1.69-.05-.07-.11-.14-.17-.21l-.06-.08a7.482,7.482,0,0,1-1.58-3.42,7.984,7.984,0,0,1-.11-1.31,7.8,7.8,0,0,1,.41-2.47c.09-.25.2-.51.31-.75s.25-.48.39-.71a7.163,7.163,0,0,1,.98-1.27,7.677,7.677,0,0,1,.59-.55l.04-.04.68-.48,5.1-3.72c7.95-6.03,15.63-12.72,20.04-21.59q.375-.75.69-1.5.48-1.125.84-2.25c.08-.25.15-.5.23-.75a28.017,28.017,0,0,0,.69-12.12c-.05-.31-.1-.61-.15-.92a43.683,43.683,0,0,0-1.99-7.3c-.32-.91-.67-1.8-1.04-2.7-.24-.59-.5-1.18-.76-1.78-.83-1.87-1.74-3.72-2.68-5.55-.24-.47-.49-.95-.74-1.42-.75-1.43-1.52-2.84-2.29-4.23q-4.6-8.355-9.2-16.73c-2.47-4.49-7.18-10.14-7.18-15.43a6.91,6.91,0,0,1,.08-1.11,7.873,7.873,0,0,1,.24-1.07,7.657,7.657,0,0,1,.39-1,6.1,6.1,0,0,1,.52-.93,7.416,7.416,0,0,1,2.77-2.51,27.221,27.221,0,0,1,4.52-1.5c2.03-.62,4.06-1.27,6.1-1.83,25.3-6.84,53.83-11.06,76.64-24.49,7.95-4.68,15.03-11.32,18.62-19.82a28.61,28.61,0,0,0,1.37-4.03,25.233,25.233,0,0,0,.33-11.63,25.855,25.855,0,0,0-1.05-3.7q-.45-1.215-.99-2.4c-.18-.4-.38-.79-.58-1.18-.41-.79-.85-1.56-1.32-2.33a39.708,39.708,0,0,0-3.25-4.48c-17.32-20.77-34.54-41.46-50.43-63.38-4.28-5.91-8.65-11.82-13.01-17.78q-2.175-2.985-4.35-5.98c-2.89-4-5.76-8.02-8.57-12.08q-2.115-3.045-4.18-6.12c-3.44-5.12-6.78-10.31-9.94-15.59q-1.9-3.165-3.71-6.37c-.6-1.07-1.2-2.15-1.79-3.22q-1.77-3.24-3.42-6.52-2.49-4.92-4.71-9.97c-.31-.7-.61-1.41-.91-2.11q-3.15-7.41-5.62-15.12c-.25-.79-.49-1.58-.72-2.36q-1.05-3.54-1.86-6.99c-.18-.77-.35-1.54-.52-2.3-.66-3.05-1.18-6.07-1.58-9.04.01-.01,0-.01,0-.02-.2-1.48-.36-2.96-.51-4.43.01-.01.01-.01,0-.02-.29-3.06-.45-6.08-.5-9.08a129.167,129.167,0,0,1,2.42-26.41c.56-2.98,1.22-5.95,1.96-8.92q.84-3.435,1.82-6.87c.24-.84.48-1.67.73-2.5.49-1.67,1.01-3.34,1.54-5.01.6-1.89,1.23-3.77,1.87-5.67q.75-2.19,1.53-4.41c2.69-7.6,5.66-15.31,8.73-23.24q3.96-10.26,7.07-20.77,1.035-3.51,1.98-7.03,1.425-5.295,2.64-10.64c.2-.89.41-1.78.6-2.67.59-2.68,1.13-5.37,1.65-8.06q1.59-8.34,2.73-16.76.465-3.375.85-6.76,1.005-8.625,1.56-17.3a394.913,394.913,0,0,0,.44-41.72,1.62,1.62,0,0,0-.01-.22c-.06-1.65-.14-3.29-.23-4.93q-.27-4.935-.63-9.85c-.12-1.64-.26-3.28-.4-4.92q-.36-4.23-.81-8.46-1.245-11.835-2.84-23.86-.45-3.435-.95-6.88-.345-2.46-.72-4.92-1.44-9.615-3.16-19.25-1.245-6.915-2.65-13.82-.7-3.45-1.45-6.9c-.5-2.29-1.01-4.59-1.54-6.88s-1.07-4.58-1.63-6.86c-10.63-43.37-26.99-85.2-52.78-119.75q-3.405-4.56-6.93-9.03c-.78-1-1.57-1.99-2.36-2.98a7,7,0,0,0-.73-.9,7.482,7.482,0,0,0-12.91,4.03.03.03,0,0,0,0,.04,5.645,5.645,0,0,0-.08.93v.09a424.669,424.669,0,0,1-20.27,101.6q-3.21,9.7-6.88,19.21-2.07,5.355-4.27,10.65c-.98,2.36-1.98,4.7-3,7.04s-2.06,4.67-3.12,6.99c-.53,1.16-1.06,2.32-1.6,3.48-.24.52-.48,1.03-.72,1.54s-.48,1.03-.72,1.54q-.465.975-.96,1.95c-.97,1.94-2,3.85-3.06,5.74-6.16,10.93-13.72,21.15-21.08,31.28q-3.45,4.74-6.99,9.42-2.655,3.51-5.35,6.98t-5.45,6.9c-1.37,1.72-2.76,3.43-4.15,5.13q-4.17,5.1-8.46,10.12-6.42,7.53-13.08,14.86-4.425,4.875-8.97,9.67-4.035,4.26-8.14,8.44a632.041,632.041,0,0,1-148.41,112.14,624.606,624.606,0,0,1-85.48,38.45,634.821,634.821,0,0,1-65.71,19.9,675.27,675.27,0,0,1-79.51,14.31q-5.43.66-10.87,1.24-11.7,1.245-23.47,2.15c-3.58.27-7.16.53-10.74.75q-9.09.585-18.2.98-5.46.24-10.94.4-14.58.45-29.15.45c-30.95,0-61.75-1.47-91.92-4.08q-7.545-.645-15.03-1.4-7.485-.735-14.91-1.57c-26.27-2.94-52.43-6.69-78.53-10.88-23.15-3.71-46.23-7.75-69.31-11.88-3.3-.59-6.6-1.17-9.9-1.76s-6.6-1.16-9.91-1.73q-19.83-3.435-39.74-6.66c-3.32-.53-6.63-1.06-9.95-1.58s-6.65-1.04-9.97-1.55q-9.975-1.53-19.95-2.99-9.99-1.44-19.98-2.81-4.995-.675-10.01-1.34l-10-1.29h-.01q-4.995-.63-10.01-1.23c-3.34-.41-6.68-.8-10.02-1.19-53.45-6.17-107.12-9.99-160.76-9.99q-6.96,0-13.92.09-6.96.075-13.9.26-17.385.435-34.77,1.47-6.945.4-13.89.92-17.37,1.29-34.72,3.22a1101.073,1101.073,0,0,0-147.36,26.76q-39.06,9.885-77.32,22.62c-10.27,3.41-20.57,6.74-30.79,10.29-8.42,2.92-16.79,5.99-25.03,9.39-6.22,2.56-12.31,5.98-18.65,8.4,0,0-5.91,2.62-8.97,3.97-.65.28-1.29.61-1.94.87-.22.08-.44.16-.67.23a7.907,7.907,0,0,1-1.07.25,8.287,8.287,0,0,1-1.11.08,7.5,7.5,0,0,1-7.5-7.5c0-.17,0-.34.01-.5s.02-.33.04-.49a.03.03,0,0,1,0-.04,7.433,7.433,0,0,1,2.14-4.26s.12-.11.34-.33c.65-.66,1.33-1.3,2.01-1.94q1.815-1.74,3.66-3.46,2.52-2.355,5.08-4.68,3.135-2.835,6.3-5.63,3.63-3.195,7.31-6.31c2.64-2.23,5.29-4.43,8.03-6.55,2.29-1.76,4.6-3.49,6.92-5.22,2.27-1.69,4.56-3.36,6.85-5.02s4.6-3.3,6.92-4.93,4.65-3.24,6.99-4.84,4.69-3.19,7.05-4.76,4.74-3.13,7.13-4.67,4.78-3.07,7.18-4.58,4.83-3.01,7.25-4.49,4.87-2.95,7.31-4.41,4.91-2.89,7.38-4.32,4.94-2.83,7.43-4.23c1.24-.7,2.49-1.39,3.74-2.09s2.5-1.38,3.75-2.06,2.51-1.36,3.76-2.04l3.78-2.01q3.795-2.01,7.6-3.98c2.54-1.31,5.1-2.6,7.65-3.88,2.57-1.29,5.13-2.55,7.71-3.81s5.16-2.49,7.76-3.71,5.19-2.43,7.8-3.63,5.23-2.38,7.85-3.54,5.26-2.33,7.9-3.46,5.29-2.27,7.94-3.38,5.32-2.21,7.99-3.29,5.35-2.15,8.03-3.2,5.37-2.1,8.07-3.12,5.4-2.04,8.11-3.04,5.42-1.98,8.14-2.95,5.45-1.93,8.18-2.87,5.48-1.87,8.22-2.79,5.49-1.81,8.25-2.7,5.52-1.76,8.28-2.61,5.54-1.71,8.31-2.54,5.56-1.65,8.35-2.45,5.57-1.6,8.36-2.37,5.6-1.54,8.4-2.29,5.61-1.48,8.42-2.2,5.63-1.43,8.44-2.13,5.64-1.37,8.47-2.04,5.65-1.32,8.48-1.95,5.67-1.27,8.51-1.88,5.68-1.21,8.52-1.8,5.69-1.15,8.54-1.71c1.43-.28,2.85-.55,4.28-.83s2.85-.54,4.27-.81,2.86-.53,4.28-.78,2.86-.51,4.29-.77q4.29-.75,8.58-1.47c2.86-.48,5.73-.94,8.59-1.39s5.73-.89,8.6-1.31,5.74-.84,8.61-1.23,5.74-.78,8.61-1.15,5.74-.73,8.62-1.08,5.74-.67,8.62-.99,5.74-.62,8.62-.91,5.75-.57,8.62-.83,5.75-.52,8.62-.76,5.75-.46,8.62-.67,5.75-.41,8.62-.6,5.74-.36,8.61-.52,5.74-.3,8.61-.44,5.73-.25,8.59-.36,5.73-.2,8.59-.29,5.72-.15,8.58-.2,5.7-.1,8.56-.13,5.7-.05,8.55-.05h1.53c2.34,0,4.67,0,7,.02,2.84.02,5.68.06,8.52.1s5.67.11,8.5.18,5.66.16,8.48.26,5.64.21,8.46.33,5.63.26,8.44.41,5.61.31,8.42.48c2.79.18,5.59.36,8.38.56.68.05,1.38.15,2.06.15,110.17,8.12,219.02,25.37,328.96,35.5q7.935.735,15.89,1.39,7.65.63,15.32,1.19,8.49.615,16.98,1.14,7.755.48,15.51.87,31.92,1.62,63.92,1.67c27.94,0,55.87-1.01,83.68-3.28,3.63-.29,7.27-.61,10.9-.95.36-.03.71-.06,1.07-.1q5.325-.495,10.64-1.07,26.925-2.865,53.64-7.43,5.865-1.02,11.72-2.11,2.925-.555,5.85-1.13,5.85-1.14,11.68-2.38c132.38-28.1,248.27-100.3,317.99-218.34q3.585-6.075,7.03-12.35,2.28-4.185,4.51-8.46t4.35-8.61q3.195-6.525,6.18-13.2,1.98-4.455,3.86-8.96.93-2.265,1.84-4.53c.42-1.04.83-2.08,1.23-3.13q3.045-7.83,5.7-15.81,1.065-3.18,2.05-6.39c.36-1.16.71-2.33,1.06-3.5q1.56-5.265,2.91-10.55c.2-.79.4-1.57.59-2.36.39-1.57.76-3.14,1.12-4.72.18-.79.36-1.57.53-2.36q.51-2.37.99-4.74c.31-1.58.62-3.16.9-4.74q1.5-8.31,2.41-16.63c.17-1.59.33-3.17.46-4.76q.42-4.755.62-9.5.2-4.785.27-9.59v-.05a7.5,7.5,0,0,1,12.72-5.33c.1.1.2.2.29.3q4.14,4.245,8.2,8.56,13.38,14.205,25.93,29.15,4.17,5,8.24,10.07c10.84,13.53,21.08,27.55,30.57,42.07a523.961,523.961,0,0,1,39.45,72.19c.16.35.31.69.46,1.03s.31.68.46,1.03c.13.29.26.59.38.88l.39.87c28.99,66.13,44.48,139.51,36.79,210.25q-.33,3.03-.72,6.06c-.38,3.04-.82,6.07-1.29,9.1q-.6,3.78-1.28,7.54t-1.47,7.52q-1.56,7.5-3.51,14.93c-.52,1.98-1.05,3.96-1.62,5.93v.01c-.21.74-.42,1.48-.64,2.22q-.975,3.315-2.03,6.63c-.22.7-.44,1.4-.67,2.09s-.45,1.4-.69,2.1a323.733,323.733,0,0,1-22.79,52.48q-2.1,3.855-4.32,7.67c-.57.97-1.11,1.96-1.62,2.94-.17.33-.34.65-.5.98a64.112,64.112,0,0,0-2.6,5.94c-.5,1.32-.95,2.65-1.36,3.98-.2.67-.4,1.34-.57,2.01-.36,1.34-.67,2.68-.94,4.03-2.52,12.89-.84,26.2,3.91,39.99,1.27,3.7,2.7,7.33,4.24,10.9q.93,2.145,1.91,4.27c.65,1.41,1.33,2.81,2.02,4.2q2.07,4.185,4.32,8.28c2.62,4.78,5.41,9.47,8.29,14.11q1.23,1.995,2.49,3.97c4.19,6.58,8.54,13.07,12.86,19.53q4.05,6.045,8.2,12.02t8.4,11.87q8.49,11.79,17.42,23.29,5.94,7.665,12.07,15.19,12.24,15.03,25.18,29.49a46.068,46.068,0,0,1,2.96,3.67c.46.64.91,1.29,1.35,1.96s.85,1.34,1.26,2.03A55.146,55.146,0,0,1,2413.633,1505.428Z" transform="translate(-448.608 -451.73)"/>
      <path class="cls-2" d="M1867.318,1393.8a8.752,8.752,0,0,1-2.226,5.375c-1.257,1.592-2.559,3.138-3.806,4.739q-4.034,5.179-8.284,10.185-8.487,10-17.775,19.277-9.272,9.274-19.244,17.81t-20.544,16.332q-10.573,7.8-21.674,14.841T1751.13,1495.7q-11.519,6.286-23.425,11.825-7.419,3.455-14.968,6.618c-74.146,31.079-155.553,41.733-235.487,40.925-27.367-.277-54.713-1.857-81.962-4.386-73.369-6.81-145.98-20.76-217.98-37.04-86.61-19.58-175.43-27.07-263.86-24.73a1307.07,1307.07,0,0,0-424.78,83.27q-10.065,3.81-20.08,7.75c-2.96,1.17-7.05,3.43-10.89,4.05a7.863,7.863,0,0,1-5.86-1.17,7.473,7.473,0,0,1-3-4.33,7.339,7.339,0,0,1-.21-1.47,2.174,2.174,0,0,1-.02-.36,7.569,7.569,0,0,1,1.02-3.78,12.066,12.066,0,0,1,3-3.06c.85-.7,1.71-1.4,2.56-2.1.01-.01.03-.02.041-.03,24.461-21.24,52.978-37.444,80.289-54.658a967.694,967.694,0,0,1,216.6-101.462,791.507,791.507,0,0,1,311.031-35.66c104.1,8.76,205.76,34.28,308.78,50.4,105.829,16.56,214.949,28.09,321.629,12.68a567.183,567.183,0,0,0,100.7-24.08q3.552-1.2,7.078-2.482t7.031-2.636q3.505-1.356,6.982-2.786t6.927-2.93q3.45-1.5,6.869-3.071t6.806-3.207q3.386-1.637,6.74-3.338t6.669-3.464c2.292-1.218,4.547-2.5,6.837-3.725a7.459,7.459,0,0,1,11.121,6.539Z" transform="translate(-448.608 -451.73)"/>
      <path class="cls-2" d="M1760.083,1680.67c0,3.177-2.264,5.567-4.131,7.915-2.133,2.684-4.343,5.305-6.568,7.913q-.86,1.006-1.721,2.012a321.207,321.207,0,0,1-83.266,68.709c-34.083,19.675-71.413,33.9-109.6,43.217q-8.722,2.129-17.525,3.9c-4.809.969-10.513,2.932-15.435,2.932-116.464,20.36-241.73,1.78-356.087-23.35-115.042-25.28-230.624-55.51-348.872-58.58-20.477-.54-40.984-.06-61.432,1.31a836.594,836.594,0,0,0-146.812,22.76q-5.661,1.41-11.293,2.92l-.568.15-.03.01-32.476,9.7a7.232,7.232,0,0,1-2.333.39,7.43,7.43,0,0,1-7.352-7.5,7.553,7.553,0,0,1,3.255-6.23l24.918-17.53,2.421-1.7c1.931-1.36,3.862-2.68,5.823-3.99a342.447,342.447,0,0,1,66.873-34.81c24.183-9.37,48.748-17.71,73.96-23.9,96.78-23.75,199.079-26.47,297.977-17.98,95.055,8.16,187.865,31.93,281.94,46.95,96.633,15.42,196.256,26.16,293.664,11.81a510.142,510.142,0,0,0,91.948-22.43q17.7-6.12,34.946-13.52c5.2-2.23,10.351-4.6,15.478-7a11.477,11.477,0,0,1,4.95-1.58A7.424,7.424,0,0,1,1760.083,1680.67Z" transform="translate(-448.608 -451.73)"/>
      <path class="cls-2" d="M1760.078,1891.238a7.516,7.516,0,0,1-1.717,4.77c-.181.2-.372.4-.553.6s-.372.39-.552.59c-38.3,41.4-78.284,81.82-120.6,119.93-23.647,21.29-48.74,41.65-76.917,57.98-40.413,23.42-83.558,39.46-127.4,45.57q-11.587,1.62-23.225,2.33-11.618.72-23.265.52-11.617-.195-23.224-1.32-11.574-1.125-23.1-3.2-11.5-2.07-22.873-5.11t-22.572-7.04q-11.2-4.02-22.17-9.02t-21.668-11.01c-10.658-6-20.694-13.5-30.869-20.48-2.63-1.8-5.962-3.255-7.585-6.2a7.51,7.51,0,0,1,5.406-10.808c2.262-.383,4.719.488,6.933.946q3.869.8,7.719,1.678c4.94,1.127,10.02,1.862,15.02,2.683q7.671,1.26,15.376,2.292,15.4,2.063,30.9,3.217,15.481,1.155,31.012,1.4t31.039-.395q15.516-.645,30.977-2.183c4.875-.485,9.832-.854,14.666-1.66,47.334-6.01,93.8-18.1,136.969-36.71,45.646-19.68,82.562-48.28,122.543-75.57q43.953-29.985,87.887-59.96c.05-.04.111-.08.171-.12a7.536,7.536,0,0,1,11.662,6.27Z" transform="translate(-448.608 -451.73)"/>
      <path class="cls-2" d="M1988.338,824.248a7.446,7.446,0,0,1-1.3,4.22.124.124,0,0,0-.02.03c-.4.59-6.7,9.84-6.99,10.24a284.111,284.111,0,0,1-21.349,29.829c-35.631,43.519-77.781,80.53-132.73,96.531-57.715,16.806-120.184,13.419-178.47,1.379-38.32-7.916-75.1-20.411-108.851-40.509a29.964,29.964,0,0,1-2.979-2.02.8.8,0,0,0-.141-.11,7.374,7.374,0,0,1-2.77-5.74,7.646,7.646,0,0,1,7.79-7.5,7.143,7.143,0,0,1,.8.04,30.294,30.294,0,0,1,3.68.47,679.173,679.173,0,0,0,164.408,10.277,588.874,588.874,0,0,0,75.332-8.947,474.757,474.757,0,0,0,67.421-17.89q16.543-5.76,32.569-12.91c10.549-4.73,20.93-9.961,30.96-15.71a294.092,294.092,0,0,0,33.06-21.89,205.05,205.05,0,0,0,22.49-20.61c.921-.96,1.87-1.9,2.77-2.89a15.084,15.084,0,0,1,2.83-2.64,7.5,7.5,0,0,1,3.99-1.15.656.656,0,0,1,.14.01,7.466,7.466,0,0,1,7.23,6.15A6.55,6.55,0,0,1,1988.338,824.248Z" transform="translate(-448.608 -451.73)"/>
    </g>
    <g>
      <g>
        <path class="cls-2" d="M1286.739,2946.608v39h-162.6v-210h158.7v39h-110.4v45.6h97.5v37.8h-97.5v48.6Z" transform="translate(-448.608 -451.73)"/>
        <path class="cls-2" d="M1348.686,2964.309q-25.053-24.9-25.05-71.1v-117.6h48.6v115.8q0,56.406,46.8,56.4,22.794,0,34.8-13.651t12-42.75v-115.8h48v117.6q0,46.2-25.049,71.1t-70.05,24.9Q1373.736,2989.208,1348.686,2964.309Z" transform="translate(-448.608 -451.73)"/>
        <path class="cls-2" d="M1695.634,2985.608l-40.5-58.5h-44.7v58.5h-48.6v-210h90.9q27.9,0,48.45,9.3t31.65,26.4q11.1,17.1,11.1,40.5t-11.25,40.349q-11.25,16.953-31.95,25.95l47.1,67.5Zm-12.3-160.95q-11.4-9.45-33.3-9.45h-39.6v73.2h39.6q21.9,0,33.3-9.6t11.4-27Q1694.734,2834.111,1683.334,2824.658Z" transform="translate(-448.608 -451.73)"/>
        <path class="cls-2" d="M1825.08,2975.108a104.622,104.622,0,0,1-41.1-38.849q-14.849-24.75-14.849-55.651t14.849-55.65a104.667,104.667,0,0,1,41.1-38.85q26.247-14.1,58.95-14.1t58.8,14.1a106.061,106.061,0,0,1,41.1,38.85q15,24.75,15,55.65t-15,55.651a106.015,106.015,0,0,1-41.1,38.849q-26.1,14.106-58.8,14.1T1825.08,2975.108Zm92.55-35.849a61.379,61.379,0,0,0,23.55-23.851q8.55-15.3,8.549-34.8t-8.549-34.8a61.372,61.372,0,0,0-23.55-23.851,70.3,70.3,0,0,0-67.2,0,61.332,61.332,0,0,0-23.55,23.851q-8.55,15.3-8.55,34.8t8.55,34.8a61.338,61.338,0,0,0,23.55,23.851,70.3,70.3,0,0,0,67.2,0Z" transform="translate(-448.608 -451.73)"/>
        <path class="cls-2" d="M2174.878,2784.908q20.545,9.3,31.65,26.4t11.1,40.5q0,23.1-11.1,40.349t-31.65,26.4q-20.552,9.153-48.451,9.149h-42.3v57.9h-48.6v-210h90.9Q2154.328,2775.608,2174.878,2784.908Zm-17.85,93.75q11.4-9.45,11.4-26.849,0-17.7-11.4-27.151t-33.3-9.45h-39.6v72.9h39.6Q2145.623,2888.108,2157.028,2878.658Z" transform="translate(-448.608 -451.73)"/>
        <path class="cls-2" d="M2414.728,2946.608v39h-162.6v-210h158.7v39h-110.4v45.6h97.5v37.8h-97.5v48.6Z" transform="translate(-448.608 -451.73)"/>
        <path class="cls-2" d="M2591.725,2940.608h-97.5l-18.6,45h-49.8l93.6-210h48l93.9,210h-51Zm-15.3-36.9-33.3-80.4-33.3,80.4Z" transform="translate(-448.608 -451.73)"/>
        <path class="cls-2" d="M2875.821,2775.608v210h-39.9l-104.7-127.5v127.5h-48v-210h40.2l104.4,127.5v-127.5Z" transform="translate(-448.608 -451.73)"/>
      </g>
      <g>
        <path class="cls-1" d="M594.944,3256.246v74.4h-48.6v-75l-81.3-135h51.6l56.1,93.3,56.1-93.3h47.7Z" transform="translate(-448.608 -451.73)"/>
        <path class="cls-1" d="M730.692,3320.146a104.62,104.62,0,0,1-41.1-38.849q-14.85-24.75-14.849-55.651T689.592,3170a104.664,104.664,0,0,1,41.1-38.85q26.249-14.1,58.951-14.1t58.8,14.1a106.047,106.047,0,0,1,41.1,38.85q15,24.75,15,55.65t-15,55.651a106,106,0,0,1-41.1,38.849q-26.1,14.106-58.8,14.1T730.692,3320.146Zm92.551-35.849a61.369,61.369,0,0,0,23.549-23.851q8.552-15.3,8.55-34.8t-8.55-34.8A61.363,61.363,0,0,0,823.243,3167a70.3,70.3,0,0,0-67.2,0,61.329,61.329,0,0,0-23.549,23.851q-8.552,15.3-8.551,34.8t8.551,34.8a61.336,61.336,0,0,0,23.549,23.851,70.3,70.3,0,0,0,67.2,0Z" transform="translate(-448.608 -451.73)"/>
        <path class="cls-1" d="M964.391,3309.347q-25.053-24.9-25.05-71.1v-117.6h48.6v115.8q0,56.406,46.8,56.4,22.8,0,34.8-13.651t12-42.75v-115.8h48v117.6q0,46.2-25.05,71.1t-70.05,24.9Q989.441,3334.246,964.391,3309.347Z" transform="translate(-448.608 -451.73)"/>
        <path class="cls-1" d="M1217.441,3160.246h-67.2v-39.6h183v39.6h-67.2v170.4h-48.6Z" transform="translate(-448.608 -451.73)"/>
        <path class="cls-1" d="M1551.94,3120.646v210h-48.6v-86.1h-95.4v86.1h-48.6v-210h48.6v82.8h95.4v-82.8Z" transform="translate(-448.608 -451.73)"/>
        <path class="cls-2" d="M1877.736,3330.646l-.3-126-61.8,103.8h-21.9l-61.5-101.1v123.3h-45.6v-210h40.2l78.6,130.5,77.4-130.5h39.9l.6,210Z" transform="translate(-448.608 -451.73)"/>
        <path class="cls-2" d="M2015.882,3320.146a104.62,104.62,0,0,1-41.1-38.849q-14.85-24.75-14.849-55.651t14.849-55.65a104.664,104.664,0,0,1,41.1-38.85q26.249-14.1,58.949-14.1t58.8,14.1a106.044,106.044,0,0,1,41.1,38.85q15,24.75,15,55.65t-15,55.651a106,106,0,0,1-41.1,38.849q-26.1,14.106-58.8,14.1T2015.882,3320.146Zm92.551-35.849a61.36,61.36,0,0,0,23.548-23.851q8.553-15.3,8.551-34.8t-8.551-34.8A61.354,61.354,0,0,0,2108.433,3167a70.3,70.3,0,0,0-67.2,0,61.327,61.327,0,0,0-23.548,23.851q-8.552,15.3-8.551,34.8t8.551,34.8a61.333,61.333,0,0,0,23.548,23.851,70.3,70.3,0,0,0,67.2,0Z" transform="translate(-448.608 -451.73)"/>
        <path class="cls-2" d="M2421.332,3120.646l-90.9,210h-48l-90.6-210h52.5l63.9,150,64.8-150Z" transform="translate(-448.608 -451.73)"/>
        <path class="cls-2" d="M2601.328,3291.646v39h-162.6v-210h158.7v39h-110.4v45.6h97.5v37.8h-97.5v48.6Z" transform="translate(-448.608 -451.73)"/>
        <path class="cls-2" d="M2831.125,3330.646l-.3-126-61.8,103.8h-21.9l-61.5-101.1v123.3h-45.6v-210h40.2l78.6,130.5,77.4-130.5h39.9l.6,210Z" transform="translate(-448.608 -451.73)"/>
        <path class="cls-2" d="M3089.121,3291.646v39h-162.6v-210h158.7v39h-110.4v45.6h97.5v37.8h-97.5v48.6Z" transform="translate(-448.608 -451.73)"/>
        <path class="cls-2" d="M3320.418,3120.646v210h-39.9l-104.7-127.5v127.5h-48v-210h40.2l104.4,127.5v-127.5Z" transform="translate(-448.608 -451.73)"/>
        <path class="cls-2" d="M3413.718,3160.246h-67.2v-39.6h183v39.6h-67.2v170.4h-48.6Z" transform="translate(-448.608 -451.73)"/>
      </g>
    </g>
  </g>
</svg>
